<svg id="Layer_1" enable-background="new 0 0 512 512" height="512" viewBox="0 0 512 512" width="512" xmlns="http://www.w3.org/2000/svg"><g><g><path d="m348.949 403.999c-89.907 0-163.051-73.144-163.051-163.05s73.144-163.051 163.051-163.051 163.051 73.144 163.051 163.051-73.144 163.05-163.051 163.05zm0-296.101c-73.364 0-133.051 59.687-133.051 133.051s59.687 133.05 133.051 133.05 133.051-59.686 133.051-133.05-59.687-133.051-133.051-133.051z" fill="#fdbf00"/></g><g><path d="m163.051 511.999c-89.907 0-163.051-73.144-163.051-163.051 0-89.906 73.144-163.05 163.051-163.05s163.051 73.144 163.051 163.05c0 89.907-73.144 163.051-163.051 163.051zm0-296.101c-73.364 0-133.051 59.686-133.051 133.05s59.687 133.051 133.051 133.051 133.051-59.686 133.051-133.051-59.687-133.05-133.051-133.05z" fill="#ffde46"/></g><path d="m163.051 185.898v30c73.364 0 133.051 59.686 133.051 133.05s-59.687 133.051-133.051 133.051v30c89.907 0 163.051-73.144 163.051-163.051 0-89.906-73.144-163.05-163.051-163.05z" fill="#ffcd00"/><path d="m348.949 77.898v30c73.364 0 133.051 59.687 133.051 133.051s-59.687 133.05-133.051 133.05v30c89.907 0 163.051-73.144 163.051-163.05s-73.144-163.051-163.051-163.051z" fill="#ff8856"/><g><path d="m348.949 107.999c-4.414 0-8.604-1.944-11.454-5.314l-49.051-58.002c-4.992-5.903-4.68-14.634.722-20.166l19.525-19.996c2.822-2.891 6.692-4.521 10.732-4.521h59.051c4.04 0 7.91 1.63 10.732 4.521l19.525 19.996c5.401 5.532 5.713 14.262.721 20.166l-49.051 58.002c-2.849 3.37-7.039 5.314-11.452 5.314z" fill="#d98ff8"/></g><path d="m408.732 24.518-19.525-19.997c-2.823-2.891-6.692-4.521-10.732-4.521h-29.526v107.998c4.414 0 8.604-1.944 11.454-5.314l49.051-58.002c4.991-5.902 4.679-14.633-.722-20.164z" fill="#ca75f5"/></g></svg>