<svg height="512pt" viewBox="0 -69 512 511" width="512pt" xmlns="http://www.w3.org/2000/svg"><path d="m44.921875 374.289062c-8.28125 0-15-6.714843-15-15v-23.867187c0-8.285156 6.71875-15 15-15 8.285156 0 15 6.714844 15 15v23.867187c0 8.285157-6.714844 15-15 15zm0 0" fill="#bc6829"/><path d="m467.078125 374.289062c-8.285156 0-15-6.714843-15-15v-23.867187c0-8.285156 6.714844-15 15-15 8.28125 0 15 6.714844 15 15v23.867187c0 8.285157-6.71875 15-15 15zm0 0" fill="#9e5015"/><path d="m421.191406.5h-330.382812c-30.507813 0-55.324219 24.816406-55.324219 55.324219v134.863281c0 8.285156 6.714844 15 15 15h411.03125c8.285156 0 15-6.714844 15-15v-134.863281c0-30.503907-24.816406-55.324219-55.324219-55.324219zm0 0" fill="#9e5015"/><path d="m90.808594.5c-30.507813 0-55.324219 24.816406-55.324219 55.324219v134.863281c0 8.285156 6.714844 15 15 15h205.605469v-205.1875zm0 0" fill="#bc6829"/><path d="m230.972656 163.394531h-155.183594c-13.769531 0-24.933593-11.167969-24.933593-24.9375v-43.515625c0-13.773437 11.164062-24.9375 24.933593-24.9375h155.183594c13.773438 0 24.9375 11.164063 24.9375 24.9375v43.515625c0 13.769531-11.164062 24.9375-24.9375 24.9375zm0 0" fill="#fcf2b6"/><path d="m436.210938 163.394531h-155.183594c-13.773438 0-24.9375-11.167969-24.9375-24.9375v-43.515625c0-13.773437 11.164062-24.9375 24.9375-24.9375h155.183594c13.769531 0 24.933593 11.164063 24.933593 24.9375v43.515625c0 13.769531-11.164062 24.9375-24.933593 24.9375zm0 0" fill="#edc472"/><path d="m441.027344 151.554688h-370.054688c-39.132812 0-70.972656 31.839843-70.972656 70.972656v112.894531c0 8.28125 6.714844 15 15 15h482c8.285156 0 15-6.71875 15-15v-112.894531c0-39.132813-31.839844-70.972656-70.972656-70.972656zm0 0" fill="#d72878"/><path d="m70.972656 151.554688c-39.132812 0-70.972656 31.839843-70.972656 70.972656v112.894531c0 8.28125 6.714844 15 15 15h240.910156v-198.867187zm0 0" fill="#ff468c"/><path d="m0 258.601562h512v30h-512zm0 0" fill="#edc472"/><path d="m0 258.601562h255.910156v30h-255.910156zm0 0" fill="#fcf2b6"/></svg>